<svg width="448" height="449" viewBox="0 0 448 449" fill="none" xmlns="http://www.w3.org/2000/svg">
<path fill-rule="evenodd" clip-rule="evenodd" d="M78.4002 185.514C78.7527 230.058 79.0117 236.734 80.5882 242C103.368 318.08 212.066 300.817 212.199 221.098L212.217 210.149L219.344 222.412C223.263 229.155 228.749 237.982 231.533 242.024C237.746 251.048 238.39 244.001 226.431 297.803C220.841 322.951 216.006 344.758 215.685 346.263L215.102 349H232.939C250.604 349 250.782 348.978 251.305 346.76C251.595 345.528 255.076 329.516 259.04 311.177C267.516 271.968 265.311 276.443 274.035 280.748C346.773 316.641 418.576 237.682 368.094 177.315C333.998 136.541 260.596 153.518 250.172 204.589C249.145 209.622 249.254 209.748 239.431 192.233C232.498 179.872 224.502 162.592 218.782 147.608L213.969 135H196.894H179.819L179.456 183.026C179.063 235.013 179.078 234.865 173.274 243.118C161.591 259.731 138.052 261.588 123.255 247.065C113.384 237.377 113.685 239.389 113.685 183.097V135H95.8421H78L78.4002 185.514ZM329.626 190.708C366.599 208.543 345.12 262.29 304.281 254.129C295.809 252.436 283.955 247.182 278.367 242.642L274.938 239.856L276.718 231.97C281.801 209.447 283.855 204.315 290.704 197.034C300.675 186.435 315.703 183.991 329.626 190.708Z" fill="black"/>
<path fill-rule="evenodd" clip-rule="evenodd" d="M196.244 1.88756C48.9658 20.6085 -40.2607 176.12 18.0414 312.474C86.0198 471.459 300.793 497.526 403.387 359.244C520.729 201.083 390.919 -22.8591 196.244 1.88756ZM116.29 186.401C116.735 243.139 116.446 241.057 125.068 249.525C140.916 265.087 164.858 262.48 175.959 243.986L179.338 238.354L180.166 219.533C180.621 209.181 181.015 186.363 181.04 168.825L181.085 136.939H197.926H214.769L220.034 150.748C225.586 165.308 240.789 197.259 246.185 205.706L249.375 210.7L251.544 203.195C266.114 152.786 336.935 140.19 368.766 182.347C413.834 242.034 346.166 317.396 276.505 285.097C265.396 279.946 267.299 276.022 257.038 325.243C254.159 339.052 251.374 350.916 250.848 351.606C249.938 352.8 216.111 353.59 216.111 352.417C216.111 352.173 220.615 331.177 226.119 305.759C237.969 251.038 237.767 253.688 230.917 242.992C228.052 238.518 222.933 230.015 219.543 224.095L213.376 213.334L212.832 225.602C209.302 305.063 103.926 320.784 83.4789 244.9C82.1219 239.866 81.7616 230.492 81.2872 187.907L80.7198 136.939H98.3101H115.9L116.29 186.401ZM306.563 190.056C291.268 194.009 284.418 203.205 278.394 227.874C274.219 244.974 273.872 243.951 286.016 250.274C316.203 265.989 344.917 253.99 346.944 224.815C348.454 203.077 327.147 184.737 306.563 190.056Z" fill="white"/>
</svg>
